<svg width="136" height="24" viewBox="0 0 136 24" fill="none" xmlns="http://www.w3.org/2000/svg">
<path d="M0.333984 0.712891L16.3219 0.720235L9.40109 13.3954V18.4524V23.5094L7.86639 23.5194V18.4524V13.383L0.333984 0.712891Z" fill="white"/>
<path d="M32.617 23.4951C30.9956 23.4951 29.4916 23.0898 28.105 22.2791C26.7396 21.4684 25.6516 20.3804 24.841 19.0151C24.0303 17.6284 23.625 16.1245 23.625 14.5031V0.743116H41.609V14.5031C41.609 16.1245 41.2036 17.6284 40.393 19.0151C39.5823 20.3804 38.4836 21.4684 37.097 22.2791C35.7316 23.0898 34.2383 23.4951 32.617 23.4951Z" fill="white"/>
<path d="M48.9071 23.4623L48.9125 0.977979H58.2245C59.7818 0.977979 61.1258 1.26598 62.2565 1.84198C63.5578 2.50331 64.5925 3.45265 65.3605 4.68998C66.1285 5.90598 66.5125 7.24998 66.5125 8.72198C66.5125 10.194 66.1285 11.5486 65.3605 12.786C64.6138 14.0233 63.5898 14.9726 62.2885 15.634C61.1791 16.21 59.8245 16.498 58.2245 16.498H54.7365V23.5263L48.9071 23.4623Z" fill="white"/>
<path d="M69.72 20.5685C69.72 19.7792 69.9973 19.1072 70.552 18.5525C71.128 17.9765 71.8213 17.6885 72.632 17.6885C73.4426 17.6885 74.1253 17.9765 74.68 18.5525C75.256 19.1072 75.544 19.7792 75.544 20.5685C75.544 21.3579 75.256 22.0405 74.68 22.6165C74.1253 23.1925 73.4426 23.4805 72.632 23.4805C71.8426 23.4805 71.16 23.1925 70.584 22.6165C70.008 22.0405 69.72 21.3579 69.72 20.5685Z" fill="white"/>
<path d="M84.5005 23.25V6.42898H89.4685C90.8005 6.42898 91.8715 6.62698 92.6815 7.02298C93.5095 7.41898 94.1125 7.97698 94.4905 8.69698C94.8685 9.41698 95.0575 10.263 95.0575 11.235C95.0575 11.865 94.9135 12.495 94.6255 13.125C94.3555 13.755 93.9595 14.304 93.4375 14.772C92.9335 15.24 92.3305 15.564 91.6285 15.744L95.5165 23.25H93.4105L89.6845 15.825H86.4175V23.25H84.5005ZM86.4175 14.151H89.6845C90.8905 14.151 91.7635 13.89 92.3035 13.368C92.8435 12.828 93.1135 12.117 93.1135 11.235C93.1135 10.677 92.9965 10.173 92.7625 9.72298C92.5285 9.25498 92.1595 8.88598 91.6555 8.61598C91.1515 8.34598 90.4945 8.21098 89.6845 8.21098H86.4175V14.151Z" fill="#FF00FF"/>
<path d="M103.158 23.52C102.06 23.52 101.07 23.34 100.188 22.98C99.3235 22.62 98.5585 22.089 97.8925 21.387L98.8645 19.686L98.9725 19.443L99.1615 19.551C99.1975 19.677 99.2425 19.821 99.2965 19.983C99.3505 20.127 99.4765 20.307 99.6745 20.523C100.143 20.919 100.683 21.234 101.295 21.468C101.925 21.702 102.636 21.819 103.428 21.819C103.932 21.819 104.391 21.747 104.805 21.603C105.237 21.441 105.606 21.234 105.912 20.982C106.236 20.712 106.479 20.406 106.641 20.064C106.821 19.704 106.911 19.326 106.911 18.93C106.911 18.624 106.875 18.345 106.803 18.093C106.749 17.841 106.632 17.616 106.452 17.418C106.29 17.202 106.065 16.995 105.777 16.797C105.489 16.581 105.12 16.356 104.67 16.122C104.22 15.888 103.68 15.636 103.05 15.366C101.88 14.916 100.953 14.43 100.269 13.908C99.6025 13.368 99.1255 12.801 98.8375 12.207C98.5675 11.613 98.4325 11.001 98.4325 10.371C98.4325 9.54298 98.6395 8.82298 99.0535 8.21098C99.4675 7.58098 100.053 7.09498 100.809 6.75298C101.583 6.39298 102.501 6.21298 103.563 6.21298C104.175 6.21298 104.76 6.30298 105.318 6.48298C105.894 6.64498 106.425 6.87898 106.911 7.18498C107.415 7.49098 107.856 7.86898 108.234 8.31898L107.019 9.93898L106.857 9.83098C106.839 9.68698 106.803 9.54298 106.749 9.39898C106.695 9.25498 106.569 9.07498 106.371 8.85898C105.939 8.44498 105.48 8.16598 104.994 8.02198C104.508 7.85998 103.932 7.77898 103.266 7.77898C102.816 7.77898 102.411 7.84198 102.051 7.96798C101.709 8.09398 101.412 8.27398 101.16 8.50798C100.908 8.74198 100.71 9.01198 100.566 9.31798C100.44 9.60598 100.377 9.91198 100.377 10.236C100.377 10.542 100.413 10.821 100.485 11.073C100.557 11.325 100.683 11.568 100.863 11.802C101.043 12.036 101.286 12.27 101.592 12.504C101.916 12.738 102.312 12.972 102.78 13.206C103.266 13.44 103.851 13.692 104.535 13.962C105.363 14.304 106.047 14.646 106.587 14.988C107.145 15.312 107.577 15.663 107.883 16.041C108.207 16.401 108.432 16.797 108.558 17.229C108.702 17.661 108.774 18.138 108.774 18.66C108.774 19.434 108.576 20.199 108.18 20.955C107.802 21.693 107.199 22.305 106.371 22.791C105.543 23.277 104.472 23.52 103.158 23.52Z" fill="#FF00FF"/>
<path d="M116.388 23.358L110.664 6.40198H112.635L116.955 19.335L121.032 6.42898H122.895L117.252 23.358H116.388Z" fill="#FF00FF"/>
<path d="M125.082 23.25V6.42898H130.482C131.742 6.42898 132.759 6.64498 133.533 7.07698C134.307 7.50898 134.874 8.08498 135.234 8.80498C135.612 9.50698 135.801 10.299 135.801 11.181C135.801 11.829 135.702 12.432 135.504 12.99C135.306 13.548 134.991 14.043 134.559 14.475C134.145 14.907 133.614 15.24 132.966 15.474C132.318 15.708 131.535 15.825 130.617 15.825H127.026V23.25H125.082ZM127.026 14.151H130.401C131.229 14.151 131.895 14.034 132.399 13.8C132.903 13.548 133.272 13.206 133.506 12.774C133.74 12.324 133.857 11.811 133.857 11.235C133.857 10.677 133.74 10.173 133.506 9.72298C133.272 9.27298 132.903 8.91298 132.399 8.64298C131.895 8.35498 131.238 8.21098 130.428 8.21098H127.026V14.151Z" fill="#FF00FF"/>
</svg>
